<svg id="Ebene_1" data-name="Ebene 1" xmlns="http://www.w3.org/2000/svg" viewBox="0 0 48.33 48.6"><defs><style>.cls-1{fill:none;stroke:#1d1d1b;stroke-miterlimit:10;}.cls-2{font-size:30.28px;fill:#1d1d1b;font-family:MyriadPro-Regular, Myriad Pro;}</style></defs><title>minus</title><line class="cls-1" x1="0.66" y1="2.27" x2="0.5" y2="46.36"/><line class="cls-1" x1="2.28" y1="48.1" x2="45.96" y2="48.1"/><line class="cls-1" x1="47.68" y1="46.23" x2="47.68" y2="46.23"/><path class="cls-1" d="M48.8,46.86A1.79,1.79,0,0,1,47,48.67" transform="translate(-1.12 -0.57)"/><line class="cls-1" x1="47.83" y1="2.3" x2="47.68" y2="46.3"/><path class="cls-1" d="M47.11,1.07A1.82,1.82,0,0,1,49,2.87" transform="translate(-1.12 -0.57)"/><line class="cls-1" x1="2.46" y1="0.5" x2="45.96" y2="0.5"/><path class="cls-1" d="M1.78,2.84a1.78,1.78,0,0,1,1.8-1.77" transform="translate(-1.12 -0.57)"/><path class="cls-1" d="M3.41,48.67a1.79,1.79,0,0,1-1.78-1.8" transform="translate(-1.12 -0.57)"/><text class="cls-2" transform="translate(9.79 32.41) scale(3.15 1)">-</text></svg>