<svg xmlns="http://www.w3.org/2000/svg" viewBox="0 0 679.68 507.14"><defs><style>.cls-1{fill:#fff;}</style></defs><title>Element 7</title><g id="Ebene_2" data-name="Ebene 2"><g id="_002-chef_Bild" data-name="002-chef Bild"><path class="cls-1" d="M0,463.46V.26H449.76c-1.62.37-3.24.75-4.86,1.11a42.24,42.24,0,0,0-33,39.55,10.36,10.36,0,0,1-.41,2.83,3.39,3.39,0,0,1-6.39-.11,6.74,6.74,0,0,1-.28-2.36c.1-1.91.25-3.83.51-5.73a48.17,48.17,0,0,1,4.12-13.73,8.66,8.66,0,0,0,.84-2.48c.28-2.27-2-4.31-5.15-3.44a38.5,38.5,0,0,0-9.51,70.3,3.88,3.88,0,0,1,2.3,3.91c-.13,8.4-.08,16.79-.06,25.19,0,3.27,1.21,4.44,4.5,4.51H504.57a19.48,19.48,0,0,0,2.16-.06,3.51,3.51,0,0,0,3.4-3.4,19.42,19.42,0,0,0,0-2.16c0-8.23,0-16.47,0-24.71a3,3,0,0,1,1.72-3A38.44,38.44,0,0,0,529.7,42.32c-5-17.82-23-29.9-41.3-27.54a4.45,4.45,0,0,1-4.34-1.58,40.17,40.17,0,0,0-8.33-6.75,42.7,42.7,0,0,0-10.14-4.36C463,1.28,460.42.73,460.26.7c-.93-.2-1.73-.34-2.34-.44H679.68V268.1c-1.18-2.35-2.46-4.67-3.5-7.08a6,6,0,0,0-3.24-3.29,264,264,0,0,0-43.11-15.22c-7.48-2-15.08-3.58-22.69-5-9-1.71-18.08-3.15-27.16-4.52-4.17-.62-8.41-.9-12.63-1.15-5.55-.34-11.12-.42-16.68-.77-10.8-.68-21.54.44-32.31.94a29.78,29.78,0,0,0-3.08.47c-.7.1-1.42.16-2.13.24-3.64.46-7.29.87-10.92,1.4-1.77.25-2.22.25-2.74-1.38a43.44,43.44,0,0,1-1.9-7.63,60.06,60.06,0,0,1-.27-9.1c.06-2.05.58-4.09.77-6.14a4.4,4.4,0,0,0-.44-2,4,4,0,0,0-1-1.06c-4.42-4.4-8.85-8.79-13.24-13.22-.93-.94-1.89-1.6-3.17-1C475.34,195,471,198,468.85,203.33a71.75,71.75,0,0,0-4,12.51c-1,5.1-1.94,10.19-1.64,15.42a8.91,8.91,0,0,0,.37,2.59,1.87,1.87,0,0,1-1.12,2.72,35.33,35.33,0,0,1-5.41,1.87c-3.19.69-6.44,1.1-9.66,1.69a6,6,0,0,1-7.16-4,77.92,77.92,0,0,1-3.12-14.72,23.75,23.75,0,0,0-2.46-8.7c-2.88-5-7.66-7-13.09-7.76a4.78,4.78,0,0,0-2.9.79,21.53,21.53,0,0,0-7.76,8.62,34.65,34.65,0,0,0-3.23,14.14c-.24,5.51,0,11-.07,16.55a4.31,4.31,0,0,1-.51,2.49c-1.81,2.31-5.8,3.19-8.56,2.06-.88-.36-1.78-.69-2.65-1.08a4.16,4.16,0,0,0-3.67.1Q384,252.4,375.62,256a8.59,8.59,0,0,1-3.2.69c-4.16.08-8.32.09-12.48,0a4.94,4.94,0,0,0-4,1.62c-2.2,2.32-4.54,4.5-6.77,6.8a4,4,0,0,1-3.19,1.32c-2.16-.06-4.32.1-6.47-.05a17.56,17.56,0,0,0-7.45,1.44c-5.52,2.07-11,4.15-16.58,6.2a253.53,253.53,0,0,0-24,10.23c-8.6,4.23-16.9,9.07-26.22,11.73a14.71,14.71,0,0,0-9.69,7.7,2,2,0,0,1-2.77,1.14,20.92,20.92,0,0,0-3-.74,45.87,45.87,0,0,0-5.22-.62,4,4,0,0,0-4.16,2.63c-.18.44-.51.83-.66,1.28a6.52,6.52,0,0,1-3.92,3.93c-10.65,4.78-21.26,9.63-31.9,14.42-4.45,2-9,3.88-12.68,7.16-1.92,1.69-3.81,3.41-5.73,5.1-3.44,3-7,5.95-11.36,7.45-1.57.54-3.25.76-4.88,1.16-.88.21-1.64.56-1.76,1.66-.18,1.5-.56,3-.66,4.48a2.88,2.88,0,0,1-2.47,2.81l-4.86,1.24-10.16,2.64a25.22,25.22,0,0,0-9.53,4.28q-5.26,4.15-10.41,8.48a88.72,88.72,0,0,1-11.61,8.48c-21.4,12.82-42.55,26.05-63,40.41-10.86,7.63-21.71,15.29-31.66,24.13-5.68,5-11.35,10.12-15.49,16.61A2.87,2.87,0,0,1,5,463.13C3.33,463.16,1.67,463.34,0,463.46ZM453.82,126.87H406.57c-1.6,0-3.2,0-4.8,0-2.6.1-3.88,1.29-3.92,3.83-.06,3.68-.08,7.36.07,11a13.33,13.33,0,0,0,4.79,9.6c3,2.71,6.65,3.58,10.63,3.58,18.31,0,36.62,0,54.94,0,9,0,18.07-.08,27.1,0a14.49,14.49,0,0,0,14.79-14.69c0-3,0-6.08,0-9.11s-1.29-4.16-4.28-4.25c-.72,0-1.44,0-2.16,0Z"/><path class="cls-1" d="M679.68,269.06V507.14H169.92c.09-.39.15-.78.27-1.16,1.81-6,5.38-10.82,9.68-15.23,5.28-5.43,11.46-9.7,17.6-14.05,6.71-4.77,13.53-9.37,19.78-14.78,11.56-10,23.13-20,34.91-29.68a613.79,613.79,0,0,1,66.31-47.8c11.39-7.09,23.09-13.72,34.85-20.2a422.38,422.38,0,0,1,38.37-18.13c4.77-2,9.64-3.8,14.5-5.7.35.42.72.68.82,1,.52,1.84,1.07,3.68,1.45,5.55,1,4.85,1.85,9.72,2.76,14.58.37,2,.68,3.93,1.06,5.88.86,4.47,1.55,9,2.68,13.37a73,73,0,0,0,5.83,15.2,7,7,0,0,1,.72,3.7c-.33,5.5-.59,11-.85,16.53,0,.63-.19,1.42.11,1.87a4.75,4.75,0,0,0,1.93,1.52c.17.08.92-.72,1.16-1.24a18.71,18.71,0,0,0,.76-2.51c1.19-3.9,1-7.91,1-11.9a8.93,8.93,0,0,1,.14-2.14,1.42,1.42,0,0,1,1.78-1.18c.4.14.64.94.82,1.48a2.81,2.81,0,0,1,0,1.19,11.59,11.59,0,0,0,1.24,6.26,12.94,12.94,0,0,0,1.39,1.78,26.29,26.29,0,0,0,1-3.16c.74-4.25,1.65-8.49,2.07-12.78.77-7.87,1.51-15.77,1.75-23.67.35-11.83.37-23.67.25-35.51,0-2.9,1-4.51,3.45-5.51l.44-.19a91.58,91.58,0,0,1,20.2-6.63c1.14-.25,2.29-.39,3.7-.63.07,1.17.18,2,.16,2.88-.11,4-.3,8-.37,12-.2,11.68-.34,23.36-.56,35a5.77,5.77,0,0,0,1.05,3.59c1.33,1.9,2.65,3.82,3.85,5.8a6.11,6.11,0,0,1,1,2.86,66.93,66.93,0,0,1-.28,8.38c-.74,6.84-1.68,13.65-2.48,20.48a30.62,30.62,0,0,0-.2,4.79,4,4,0,0,0,.76,2.41c2.73,3,5.4,6.15,9.07,8.12a2.79,2.79,0,0,1,1.7,3.06,19.29,19.29,0,0,0,1.82,9.56c1,2.27,1.87,4.59,2.62,6.95a6.05,6.05,0,0,1,.06,3c-.66,2.88-1.49,5.72-2.25,8.58q-1.42,5.33-2.84,10.65c-.39,1.48.12,2.57,1.34,2.42,2-.24,4.11-.4,5.38-2.53,3.55-6,4.77-12.15,1.82-18.75-.8-1.81-.71-1.9.93-3.13,1.27-1,2.48-2,3.7-3a2.83,2.83,0,0,0,.89-2.81c-.54-3.95-1.15-7.9-1.38-11.88-.4-6.86-.71-13.74-.72-20.62,0-16.15.12-32.31.19-48.46.05-11.76.4-23.51,1.44-35.23q.4-4.65.77-9.3c.07-1,.28-1.74,1.37-2,3.29-.63,6.57-1.3,9.86-1.9,2.66-.49,5.35-.87,8-1.34s5.32-1,8-1.49c2.11-.38,4.24-.7,6.36-1,3.23-.46,6.47-.86,9.7-1.32,3.38-.49,6.76-1.09,10.15-1.54,4.43-.58,8.87-1.15,13.31-1.59,5.25-.52,10.51-1.08,15.77-1.28,6-.22,12-.23,18,0A77.92,77.92,0,0,1,603,306.18c4.86.9,9.67,2.13,14.52,3.11,5.56,1.12,11.14,2.15,16.72,3.18,8.17,1.49,16.35,3,24.54,4.4,2.91.51,5.86.77,8.79,1.15a3.58,3.58,0,0,0,3.19-1.27,12.59,12.59,0,0,0,3.64-6.63c.46-2.74.54-5.55.91-8.31a3.16,3.16,0,0,0-1.52-3.49,63.5,63.5,0,0,0-8.17-4.45,104.83,104.83,0,0,0-23.92-5.93c-7.59-1.12-15.21-2.06-22.86-2.66-8.59-.68-17.23-1.21-25.85-1.19-9.89,0-19.78-.72-29.69.36-5.29.58-10.68.1-16,1a90.85,90.85,0,0,1-11.43,1,137.79,137.79,0,0,0-15.16,1.95A94,94,0,0,0,502.19,293a5.87,5.87,0,0,1-2.8.18c-1.5-.21-2.95-.74-4.44-1a3.26,3.26,0,0,1-3.05-3.41c-.06-3.35-.11-6.72.15-10.06.28-3.57,1-7.11,1.39-10.68.41-3.73.69-7.47,1-11.21a1.86,1.86,0,0,1,1.5-1.89c.54-.14,1.08-.31,1.62-.43a146.42,146.42,0,0,1,26.61-3.27c4.62-.16,9.26-.15,13.88,0,5.58.18,11.17.47,16.74,1a192.83,192.83,0,0,1,27.42,4.51,15.79,15.79,0,0,0,3.56.39c8.24,0,16.48-.11,24.72-.09a8.86,8.86,0,0,1,3.46.68c8,3.5,15.88,7.21,23.91,10.61q10.6,4.47,21.44,8.38a45.8,45.8,0,0,0,8.89,1.89,5.17,5.17,0,0,0,5.58-2.45C675.37,273.49,677,270.85,679.68,269.06Zm-265,131.87h0c0,.48,0,1,0,1.44.11,1.65.75,2,2.13,1.16.9-.54,1.85-1.17,1.75-2.37a3.75,3.75,0,0,0-2.11-3c-.95-.51-1.65,0-1.76,1.11C414.62,399.81,414.66,400.37,414.66,400.93Zm53.66,41.78c-.84-.32-1.32-.68-1.59-.57-.42.19-.7.7-1,1.07.33.28.76.84,1,.77A7.66,7.66,0,0,0,468.32,442.71Z"/><path d="M679.68,269.06c-2.67,1.79-4.31,4.43-5.92,7.1a5.17,5.17,0,0,1-5.58,2.45,45.8,45.8,0,0,1-8.89-1.89q-10.81-3.92-21.44-8.38c-8-3.4-15.92-7.11-23.91-10.61a8.86,8.86,0,0,0-3.46-.68c-8.24,0-16.48.08-24.72.09a15.79,15.79,0,0,1-3.56-.39,192.83,192.83,0,0,0-27.42-4.51c-5.57-.48-11.16-.77-16.74-1-4.62-.16-9.26-.17-13.88,0a146.42,146.42,0,0,0-26.61,3.27c-.54.12-1.08.29-1.62.43a1.86,1.86,0,0,0-1.5,1.89c-.3,3.74-.58,7.48-1,11.21-.4,3.57-1.11,7.11-1.39,10.68-.26,3.34-.21,6.71-.15,10.06a3.26,3.26,0,0,0,3.05,3.41c1.49.24,2.94.77,4.44,1a5.87,5.87,0,0,0,2.8-.18,94,94,0,0,1,18.56-4.66,137.79,137.79,0,0,1,15.16-1.95,90.85,90.85,0,0,0,11.43-1c5.32-.89,10.71-.41,16-1,9.91-1.08,19.8-.34,29.69-.36,8.62,0,17.26.51,25.85,1.19,7.65.6,15.27,1.54,22.86,2.66a104.83,104.83,0,0,1,23.92,5.93,63.5,63.5,0,0,1,8.17,4.45,3.16,3.16,0,0,1,1.52,3.49c-.37,2.76-.45,5.57-.91,8.31a12.59,12.59,0,0,1-3.64,6.63,3.58,3.58,0,0,1-3.19,1.27c-2.93-.38-5.88-.64-8.79-1.15-8.19-1.41-16.37-2.91-24.54-4.4-5.58-1-11.16-2.06-16.72-3.18-4.85-1-9.66-2.21-14.52-3.11a77.92,77.92,0,0,0-11.15-1.48c-6-.24-12-.23-18,0-5.26.2-10.52.76-15.77,1.28-4.44.44-8.88,1-13.31,1.59-3.39.45-6.77,1.05-10.15,1.54-3.23.46-6.47.86-9.7,1.32-2.12.3-4.25.62-6.36,1-2.67.46-5.32,1-8,1.49s-5.35.85-8,1.34c-3.29.6-6.57,1.27-9.86,1.9-1.09.21-1.3,1-1.37,2q-.36,4.65-.77,9.3c-1,11.72-1.39,23.47-1.44,35.23-.07,16.15-.23,32.31-.19,48.46,0,6.88.32,13.76.72,20.62.23,4,.84,7.93,1.38,11.88a2.83,2.83,0,0,1-.89,2.81c-1.22,1-2.43,2.07-3.7,3-1.64,1.23-1.73,1.32-.93,3.13,2.95,6.6,1.73,12.76-1.82,18.75-1.27,2.13-3.36,2.29-5.38,2.53-1.22.15-1.73-.94-1.34-2.42q1.41-5.32,2.84-10.65c.76-2.86,1.59-5.7,2.25-8.58a6.05,6.05,0,0,0-.06-3c-.75-2.36-1.64-4.68-2.62-6.95a19.29,19.29,0,0,1-1.82-9.56,2.79,2.79,0,0,0-1.7-3.06c-3.67-2-6.34-5.1-9.07-8.12a4,4,0,0,1-.76-2.41,30.62,30.62,0,0,1,.2-4.79c.8-6.83,1.74-13.64,2.48-20.48a66.93,66.93,0,0,0,.28-8.38,6.11,6.11,0,0,0-1-2.86c-1.2-2-2.52-3.9-3.85-5.8a5.77,5.77,0,0,1-1.05-3.59c.22-11.67.36-23.35.56-35,.07-4,.26-8,.37-12,0-.85-.09-1.71-.16-2.88-1.41.24-2.56.38-3.7.63a91.58,91.58,0,0,0-20.2,6.63l-.44.19c-2.49,1-3.48,2.61-3.45,5.51.12,11.84.1,23.68-.25,35.51-.24,7.9-1,15.8-1.75,23.67-.42,4.29-1.33,8.53-2.07,12.78a26.29,26.29,0,0,1-1,3.16,12.94,12.94,0,0,1-1.39-1.78,11.59,11.59,0,0,1-1.24-6.26,2.81,2.81,0,0,0,0-1.19c-.18-.54-.42-1.34-.82-1.48a1.42,1.42,0,0,0-1.78,1.18,8.93,8.93,0,0,0-.14,2.14c0,4,.19,8-1,11.9a18.71,18.71,0,0,1-.76,2.51c-.24.52-1,1.32-1.16,1.24a4.75,4.75,0,0,1-1.93-1.52c-.3-.45-.15-1.24-.11-1.87.26-5.51.52-11,.85-16.53a7,7,0,0,0-.72-3.7,73,73,0,0,1-5.83-15.2c-1.13-4.39-1.82-8.9-2.68-13.37-.38-1.95-.69-3.92-1.06-5.88-.91-4.86-1.79-9.73-2.76-14.58-.38-1.87-.93-3.71-1.45-5.55-.1-.34-.47-.6-.82-1-4.86,1.9-9.73,3.67-14.5,5.7a422.38,422.38,0,0,0-38.37,18.13c-11.76,6.48-23.46,13.11-34.85,20.2a613.79,613.79,0,0,0-66.31,47.8c-11.78,9.72-23.35,19.69-34.91,29.68-6.25,5.41-13.07,10-19.78,14.78-6.14,4.35-12.32,8.62-17.6,14.05-4.3,4.41-7.87,9.25-9.68,15.23-.12.38-.18.77-.27,1.16H157a20.6,20.6,0,0,0-2.48-7.92c-1.09-2-2-4.15-2.92-6.28a3.79,3.79,0,0,1,.51-4.06c2.25-2.9,4.33-5.94,6.61-8.82a143.47,143.47,0,0,1,34.81-31.31,52.5,52.5,0,0,0,10.88-8.93c3.42-3.81,7-7.51,10.58-11.13a37.11,37.11,0,0,1,5.53-4.54c5.83-3.93,11.89-7.54,17.61-11.62,12.84-9.14,25.53-18.48,38.26-27.75a470.66,470.66,0,0,1,40.39-26.7A267.64,267.64,0,0,1,347.48,343C361,337.29,374.85,332.3,388,325.74c6.08-3,12-6.41,17.94-9.64a2.82,2.82,0,0,0,1.78-2.36c.19-2.62.59-5.24.63-7.86.12-7.44.1-14.88.13-22.32a42.79,42.79,0,0,0-1.73-11.3c-.63-2.29-1.08-2.66-3.35-2.14a118.26,118.26,0,0,0-11.83,3c-7.33,2.49-14.59,5.19-21.8,8-9.51,3.73-19.12,7.14-28.95,9.92-7,2-14.11,3.84-21.17,5.77-5.06,1.38-10.16,2.64-15.16,4.21a119.52,119.52,0,0,0-25.2,10.89c-8.87,5.26-17.62,10.72-26.32,16.25a60.08,60.08,0,0,1-15.33,7.18,101,101,0,0,0-18.93,7.35,427.2,427.2,0,0,0-41.81,25.37c-13.27,9.07-26.46,18.26-39.71,27.35-15.7,10.77-30.85,22.26-46,33.73q-14.73,11.13-30,21.57c-7,4.75-13.75,9.6-19.44,15.89a54.32,54.32,0,0,1-5.29,4.87A24.6,24.6,0,0,1,25.14,477a18.88,18.88,0,0,1-11.87-1.86c-3-1.39-5.95-2.75-9-4-1.39-.58-2.87-.93-4.31-1.38v-6.24c1.67-.12,3.33-.3,5-.33a2.87,2.87,0,0,0,2.65-1.3c4.14-6.49,9.81-11.56,15.49-16.61,10-8.84,20.8-16.5,31.66-24.13,20.41-14.36,41.56-27.59,63-40.41a88.72,88.72,0,0,0,11.61-8.48q5.13-4.33,10.41-8.48a25.22,25.22,0,0,1,9.53-4.28l10.16-2.64,4.86-1.24a2.88,2.88,0,0,0,2.47-2.81c.1-1.5.48-3,.66-4.48.12-1.1.88-1.45,1.76-1.66,1.63-.4,3.31-.62,4.88-1.16C178.51,344,182,341,185.46,338c1.92-1.69,3.81-3.41,5.73-5.1,3.72-3.28,8.23-5.16,12.68-7.16,10.64-4.79,21.25-9.64,31.9-14.42a6.52,6.52,0,0,0,3.92-3.93c.15-.45.48-.84.66-1.28a4,4,0,0,1,4.16-2.63,45.87,45.87,0,0,1,5.22.62,20.92,20.92,0,0,1,3,.74,2,2,0,0,0,2.77-1.14,14.71,14.71,0,0,1,9.69-7.7c9.32-2.66,17.62-7.5,26.22-11.73a253.53,253.53,0,0,1,24-10.23c5.54-2.05,11.06-4.13,16.58-6.2a17.56,17.56,0,0,1,7.45-1.44c2.15.15,4.31,0,6.47.05a4,4,0,0,0,3.19-1.32c2.23-2.3,4.57-4.48,6.77-6.8a4.94,4.94,0,0,1,4-1.62c4.16.09,8.32.08,12.48,0a8.59,8.59,0,0,0,3.2-.69q8.34-3.63,16.59-7.43a4.16,4.16,0,0,1,3.67-.1c.87.39,1.77.72,2.65,1.08,2.76,1.13,6.75.25,8.56-2.06a4.31,4.31,0,0,0,.51-2.49c0-5.51-.17-11,.07-16.55a34.65,34.65,0,0,1,3.23-14.14,21.53,21.53,0,0,1,7.76-8.62,4.78,4.78,0,0,1,2.9-.79c5.43.72,10.21,2.72,13.09,7.76a23.75,23.75,0,0,1,2.46,8.7,77.92,77.92,0,0,0,3.12,14.72,6,6,0,0,0,7.16,4c3.22-.59,6.47-1,9.66-1.69a35.33,35.33,0,0,0,5.41-1.87,1.87,1.87,0,0,0,1.12-2.72,8.91,8.91,0,0,1-.37-2.59c-.3-5.23.6-10.32,1.64-15.42a71.75,71.75,0,0,1,4-12.51c2.16-5.37,6.49-8.35,11.42-10.72,1.28-.62,2.24,0,3.17,1,4.39,4.43,8.82,8.82,13.24,13.22a4,4,0,0,1,1,1.06,4.4,4.4,0,0,1,.44,2c-.19,2-.71,4.09-.77,6.14a60.06,60.06,0,0,0,.27,9.1,43.44,43.44,0,0,0,1.9,7.63c.52,1.63,1,1.63,2.74,1.38,3.63-.53,7.28-.94,10.92-1.4.71-.08,1.43-.14,2.13-.24a29.78,29.78,0,0,1,3.08-.47c10.77-.5,21.51-1.62,32.31-.94,5.56.35,11.13.43,16.68.77,4.22.25,8.46.53,12.63,1.15,9.08,1.37,18.14,2.81,27.16,4.52,7.61,1.43,15.21,3,22.69,5a264,264,0,0,1,43.11,15.22,6,6,0,0,1,3.24,3.29c1,2.41,2.32,4.73,3.5,7.08Zm-215.62,9.78V268.77c0-5.95,0-5.95-4.3-10.08l-.35-.34a3.68,3.68,0,0,0-4.6-.57q-4,2-8,3.79c-2,.91-4.15,1.65-6.16,2.62a2.92,2.92,0,0,0-1.5,1.67c-.49,2.08-.74,4.22-1.06,6.34-.42,2.75-.75,5.52-1.25,8.26a75.68,75.68,0,0,0-1.66,15.89,20.52,20.52,0,0,0,1.52,7c1.53,3.9,1.8,3.93,5.84,2.75a68.74,68.74,0,0,0,18.54-8.23,5.94,5.94,0,0,0,3-5.57C464,287.79,464.06,283.32,464.06,278.84Z"/><path class="cls-1" d="M0,469.7c1.44.45,2.92.8,4.31,1.38,3,1.28,6,2.64,9,4A18.88,18.88,0,0,0,25.14,477a24.6,24.6,0,0,0,11.3-5.51,54.32,54.32,0,0,0,5.29-4.87c5.69-6.29,12.48-11.14,19.44-15.89q15.26-10.41,30-21.57c15.19-11.47,30.34-23,46-33.73,13.25-9.09,26.44-18.28,39.71-27.35a427.2,427.2,0,0,1,41.81-25.37,101,101,0,0,1,18.93-7.35A60.08,60.08,0,0,0,253,328.15c8.7-5.53,17.45-11,26.32-16.25A119.52,119.52,0,0,1,304.5,301c5-1.57,10.1-2.83,15.16-4.21,7.06-1.93,14.13-3.78,21.17-5.77,9.83-2.78,19.44-6.19,28.95-9.92,7.21-2.83,14.47-5.53,21.8-8a118.26,118.26,0,0,1,11.83-3c2.27-.52,2.72-.15,3.35,2.14a42.79,42.79,0,0,1,1.73,11.3c0,7.44,0,14.88-.13,22.32,0,2.62-.44,5.24-.63,7.86A2.82,2.82,0,0,1,406,316.1c-6,3.23-11.86,6.62-17.94,9.64-13.16,6.56-27,11.55-40.53,17.24a267.64,267.64,0,0,0-30.74,15.1,470.66,470.66,0,0,0-40.39,26.7c-12.73,9.27-25.42,18.61-38.26,27.75-5.72,4.08-11.78,7.69-17.61,11.62a37.11,37.11,0,0,0-5.53,4.54c-3.62,3.62-7.16,7.32-10.58,11.13a52.5,52.5,0,0,1-10.88,8.93,143.47,143.47,0,0,0-34.81,31.31c-2.28,2.88-4.36,5.92-6.61,8.82a3.79,3.79,0,0,0-.51,4.06c.9,2.13,1.83,4.25,2.92,6.28a20.6,20.6,0,0,1,2.48,7.92H0Z"/><path d="M457.92.26a46.77,46.77,0,0,1,7.67,1.83A39.65,39.65,0,0,1,484.06,13.2a4.45,4.45,0,0,0,4.34,1.58c18.27-2.36,36.29,9.72,41.3,27.54a38.44,38.44,0,0,1-17.84,44.14,3,3,0,0,0-1.72,3c.07,8.24,0,16.48,0,24.71a19.42,19.42,0,0,1,0,2.16,3.51,3.51,0,0,1-3.4,3.4,19.48,19.48,0,0,1-2.16.06H402.35c-3.29-.07-4.5-1.24-4.5-4.51,0-8.4-.07-16.79.06-25.19a3.88,3.88,0,0,0-2.3-3.91,38.5,38.5,0,0,1,9.51-70.3c3.15-.87,5.43,1.17,5.15,3.44a8.66,8.66,0,0,1-.84,2.48,48.17,48.17,0,0,0-4.12,13.73c-.26,1.9-.41,3.82-.51,5.73a6.74,6.74,0,0,0,.28,2.36,3.39,3.39,0,0,0,6.39.11,10.36,10.36,0,0,0,.41-2.83c.07-1.84,2.81-22.23,18.37-33.18a48.69,48.69,0,0,1,14.8-6.64,45,45,0,0,1,4.71-.84c1-.13,1.92-.2,2.7-.23.62,0,1.68,0,3,0C455.45,0,456.67.1,457.92.26Zm38.16,74.11a8.41,8.41,0,0,0-.51-1.88,3.28,3.28,0,0,0-3.63-1.71A3.33,3.33,0,0,0,489.16,74a24.54,24.54,0,0,1-3.72,10c-1.56,2.6-3.34,5.06-5,7.58a20.77,20.77,0,0,0-1.44,2.2,3.43,3.43,0,0,0,5.45,4,5.64,5.64,0,0,0,.94-1.07c2.45-3.73,5.05-7.38,7.27-11.24A24.37,24.37,0,0,0,496.08,74.37Zm-84.36.41c.28,1.32.48,2.67.86,4,2,7,6,12.84,10.4,18.43a3.36,3.36,0,0,0,4.86.86c1.61-1.15,1.9-3.17.66-5.1-.6-.94-1.36-1.78-2-2.7-3.46-5.08-7-10.11-7.81-16.47a3.27,3.27,0,0,0-3.88-3C413,71,411.84,72.52,411.72,74.78Zm45.75,9.89c0-2.56,0-5.11,0-7.67a23.35,23.35,0,0,0-.12-3.35,3.3,3.3,0,0,0-3.27-2.92,3.25,3.25,0,0,0-3.43,2.72,12.54,12.54,0,0,0-.2,2.38c0,3.51,0,7,0,10.55,0,2.87-.07,5.76.06,8.63.11,2.32,1.64,3.74,3.61,3.66s3.18-1.5,3.34-3.69c0-.48,0-1,0-1.44Z"/><path d="M453.82,126.87h49.9c.72,0,1.44,0,2.16,0,3,.09,4.23,1.27,4.28,4.25s0,6.07,0,9.11a14.49,14.49,0,0,1-14.79,14.69c-9-.1-18.07,0-27.1,0-18.32,0-36.63,0-54.94,0-4,0-7.59-.87-10.63-3.58a13.33,13.33,0,0,1-4.79-9.6c-.15-3.67-.13-7.35-.07-11,0-2.54,1.32-3.73,3.92-3.83,1.6,0,3.2,0,4.8,0Z"/><path d="M414.66,400.93c0-.56,0-1.12,0-1.68.11-1.15.81-1.62,1.76-1.11a3.75,3.75,0,0,1,2.11,3c.1,1.2-.85,1.83-1.75,2.37-1.38.85-2,.49-2.13-1.16,0-.48,0-1,0-1.44Z"/><path d="M468.32,442.71a7.66,7.66,0,0,1-1.67,1.27c-.2.07-.63-.49-1-.77.34-.37.62-.88,1-1.07C467,442,467.48,442.39,468.32,442.71Z"/><path class="cls-1" d="M464.06,278.84c0,4.48-.1,9,0,13.42a5.94,5.94,0,0,1-3,5.57,68.74,68.74,0,0,1-18.54,8.23c-4,1.18-4.31,1.15-5.84-2.75a20.52,20.52,0,0,1-1.52-7,75.68,75.68,0,0,1,1.66-15.89c.5-2.74.83-5.51,1.25-8.26.32-2.12.57-4.26,1.06-6.34a2.92,2.92,0,0,1,1.5-1.67c2-1,4.13-1.71,6.16-2.62q4-1.83,8-3.79a3.68,3.68,0,0,1,4.6.57l.35.34c4.3,4.13,4.3,4.13,4.3,10.08Z"/><path class="cls-1" d="M496.08,74.37a24.37,24.37,0,0,1-3.44,11c-2.22,3.86-4.82,7.51-7.27,11.24a5.64,5.64,0,0,1-.94,1.07,3.43,3.43,0,0,1-5.45-4,20.77,20.77,0,0,1,1.44-2.2c1.68-2.52,3.46-5,5-7.58a24.54,24.54,0,0,0,3.72-10,3.33,3.33,0,0,1,2.78-3.17,3.28,3.28,0,0,1,3.63,1.71A8.41,8.41,0,0,1,496.08,74.37Z"/><path class="cls-1" d="M411.72,74.78c.12-2.26,1.23-3.76,3.1-4a3.27,3.27,0,0,1,3.88,3c.84,6.36,4.35,11.39,7.81,16.47.63.92,1.39,1.76,2,2.7,1.24,1.93.95,3.95-.66,5.1a3.36,3.36,0,0,1-4.86-.86c-4.44-5.59-8.38-11.48-10.4-18.43C412.2,77.45,412,76.1,411.72,74.78Z"/><path class="cls-1" d="M457.47,84.67v8.87c0,.48,0,1,0,1.44-.16,2.19-1.46,3.61-3.34,3.69s-3.5-1.34-3.61-3.66c-.13-2.87-.05-5.76-.06-8.63,0-3.52,0-7,0-10.55a12.54,12.54,0,0,1,.2-2.38,3.25,3.25,0,0,1,3.43-2.72,3.3,3.3,0,0,1,3.27,2.92,23.35,23.35,0,0,1,.12,3.35C457.48,79.56,457.47,82.11,457.47,84.67Z"/></g></g></svg>