<svg xmlns="http://www.w3.org/2000/svg" viewBox="0 0 679.72 507.15"><title>Element 1</title><g id="Ebene_2" data-name="Ebene 2"><g id="Ebene_1-2" data-name="Ebene 1"><g id="Ebene_2-2" data-name="Ebene 2"><g id="_002-chef_Bild" data-name=" 002-chef Bild"><path d="M679.72,269.05c-2.67,1.79-4.31,4.43-5.92,7.1a5.18,5.18,0,0,1-5.58,2.45,45.69,45.69,0,0,1-8.89-1.89q-10.82-3.91-21.44-8.38c-8-3.4-15.92-7.11-23.91-10.61a8.75,8.75,0,0,0-3.46-.68c-8.24,0-16.48.08-24.72.09a15.23,15.23,0,0,1-3.56-.39,192.6,192.6,0,0,0-27.42-4.51c-5.57-.48-11.16-.77-16.74-1-4.62-.16-9.26-.17-13.88,0a146.2,146.2,0,0,0-26.61,3.27c-.54.12-1.08.29-1.62.43a1.86,1.86,0,0,0-1.5,1.89c-.3,3.74-.58,7.48-1,11.21-.4,3.57-1.11,7.11-1.39,10.68-.26,3.34-.21,6.71-.15,10.06a3.25,3.25,0,0,0,3.05,3.41c1.49.24,2.94.77,4.44,1a5.79,5.79,0,0,0,2.8-.18,94.14,94.14,0,0,1,18.56-4.66,137.79,137.79,0,0,1,15.16-1.95,91.2,91.2,0,0,0,11.43-1c5.32-.89,10.71-.41,16-1,9.91-1.08,19.8-.34,29.69-.36,8.62,0,17.26.51,25.85,1.19,7.65.6,15.27,1.54,22.86,2.66a104.83,104.83,0,0,1,23.92,5.93,63.28,63.28,0,0,1,8.17,4.45,3.16,3.16,0,0,1,1.52,3.49c-.37,2.76-.45,5.57-.91,8.31a12.64,12.64,0,0,1-3.64,6.63,3.57,3.57,0,0,1-3.19,1.27c-2.93-.38-5.88-.64-8.79-1.15-8.19-1.41-16.37-2.91-24.54-4.4q-8.37-1.5-16.72-3.18c-4.85-1-9.66-2.21-14.52-3.11a77.55,77.55,0,0,0-11.15-1.48q-9-.36-18,0c-5.26.2-10.52.76-15.77,1.28-4.44.44-8.88,1-13.31,1.59-3.39.45-6.77,1.05-10.15,1.54s-6.47.86-9.7,1.32c-2.12.3-4.25.62-6.36,1-2.67.46-5.32,1-8,1.49s-5.35.85-8,1.34c-3.29.6-6.57,1.27-9.86,1.9-1.09.21-1.3,1-1.37,2q-.36,4.65-.77,9.3c-1,11.72-1.39,23.47-1.44,35.23-.07,16.15-.23,32.31-.19,48.46,0,6.88.32,13.76.72,20.62.23,4,.84,7.93,1.38,11.88a2.84,2.84,0,0,1-.89,2.81c-1.22,1-2.43,2.07-3.7,3-1.64,1.23-1.73,1.32-.93,3.13,2.95,6.6,1.73,12.76-1.82,18.75-1.27,2.13-3.36,2.29-5.38,2.53-1.22.15-1.73-.94-1.34-2.42q1.41-5.33,2.84-10.65c.76-2.86,1.59-5.7,2.25-8.58a6.09,6.09,0,0,0-.06-3c-.75-2.36-1.64-4.68-2.62-7a19.34,19.34,0,0,1-1.82-9.56,2.79,2.79,0,0,0-1.7-3.06c-3.67-2-6.34-5.1-9.07-8.12a4,4,0,0,1-.76-2.41,30.67,30.67,0,0,1,.2-4.79c.8-6.83,1.74-13.64,2.48-20.48a66.93,66.93,0,0,0,.28-8.38,6.1,6.1,0,0,0-1-2.86c-1.2-2-2.52-3.9-3.85-5.8a5.76,5.76,0,0,1-1-3.59c.22-11.67.36-23.35.56-35,.07-4,.26-8,.37-12,0-.85-.09-1.71-.16-2.88-1.41.24-2.56.38-3.7.63a91.41,91.41,0,0,0-20.2,6.63l-.44.19c-2.49,1-3.48,2.61-3.45,5.51.12,11.84.1,23.68-.25,35.51-.24,7.9-1,15.8-1.75,23.67-.42,4.29-1.33,8.53-2.07,12.78a27,27,0,0,1-1,3.16,13.3,13.3,0,0,1-1.39-1.78,11.61,11.61,0,0,1-1.24-6.26,3,3,0,0,0,0-1.19c-.18-.54-.42-1.34-.82-1.48a1.41,1.41,0,0,0-1.74,1,1.16,1.16,0,0,0,0,.18,9,9,0,0,0-.14,2.14c0,4,.19,8-1,11.9a18.58,18.58,0,0,1-.76,2.51c-.24.52-1,1.32-1.16,1.24a4.72,4.72,0,0,1-1.93-1.52c-.3-.45-.15-1.24-.11-1.87.26-5.51.52-11,.85-16.53a7.07,7.07,0,0,0-.72-3.7A73.08,73.08,0,0,1,415,380.8c-1.13-4.39-1.82-8.9-2.68-13.37-.38-1.95-.69-3.92-1.06-5.88-.91-4.86-1.79-9.73-2.76-14.58-.38-1.87-.93-3.71-1.45-5.55-.1-.34-.47-.6-.82-1-4.86,1.9-9.73,3.67-14.5,5.7a423.65,423.65,0,0,0-38.37,18.13c-11.76,6.48-23.46,13.11-34.85,20.2a613.79,613.79,0,0,0-66.31,47.8c-11.78,9.72-23.35,19.69-34.91,29.68-6.25,5.41-13.07,10-19.78,14.78-6.14,4.35-12.32,8.62-17.6,14.05-4.3,4.41-7.87,9.25-9.68,15.23-.12.38-.18.77-.27,1.16H157a20.54,20.54,0,0,0-2.48-7.92c-1.09-2-2-4.15-2.92-6.28a3.78,3.78,0,0,1,.51-4.06c2.25-2.9,4.33-5.94,6.61-8.82a143.49,143.49,0,0,1,34.81-31.31,52.44,52.44,0,0,0,10.88-8.93c3.42-3.81,7-7.51,10.58-11.13a36.5,36.5,0,0,1,5.53-4.54c5.83-3.93,11.89-7.54,17.61-11.62,12.84-9.14,25.53-18.48,38.26-27.75a470.66,470.66,0,0,1,40.39-26.7,267.88,267.88,0,0,1,30.7-15.1c13.52-5.71,27.37-10.7,40.52-17.26,6.08-3,12-6.41,17.94-9.64a2.82,2.82,0,0,0,1.78-2.36c.19-2.62.59-5.24.63-7.86.12-7.44.1-14.88.13-22.32a42.79,42.79,0,0,0-1.73-11.3c-.63-2.29-1.08-2.66-3.35-2.14a120.5,120.5,0,0,0-11.83,3c-7.33,2.49-14.59,5.19-21.8,8-9.51,3.73-19.12,7.14-28.95,9.92-7,2-14.11,3.84-21.17,5.77-5.06,1.38-10.16,2.64-15.16,4.21a119.23,119.23,0,0,0-25.2,10.89c-8.87,5.26-17.62,10.72-26.32,16.25a60.1,60.1,0,0,1-15.33,7.18,101.23,101.23,0,0,0-18.93,7.35,426.44,426.44,0,0,0-41.81,25.37c-13.27,9.07-26.46,18.26-39.71,27.35-15.7,10.77-30.85,22.26-46,33.73q-14.73,11.13-30,21.57c-7,4.75-13.75,9.6-19.44,15.89a53,53,0,0,1-5.29,4.87A24.55,24.55,0,0,1,25.18,477a18.85,18.85,0,0,1-11.87-1.86c-3-1.39-5.95-2.75-9-4-1.39-.58-2.87-.93-4.31-1.38v-6.24c1.67-.12,3.33-.3,5-.33a2.87,2.87,0,0,0,2.65-1.3c4.14-6.49,9.81-11.56,15.49-16.61,10-8.84,20.8-16.5,31.66-24.13,20.41-14.36,41.56-27.59,63-40.41a88.47,88.47,0,0,0,11.61-8.48q5.13-4.33,10.41-8.48a25.21,25.21,0,0,1,9.53-4.28l10.16-2.64,4.86-1.24a2.88,2.88,0,0,0,2.47-2.81c.1-1.5.48-3,.66-4.48.12-1.1.88-1.45,1.76-1.66,1.63-.4,3.31-.62,4.88-1.16C178.55,344,182,341,185.5,338c1.92-1.69,3.81-3.41,5.73-5.1,3.72-3.28,8.23-5.16,12.68-7.16,10.64-4.79,21.25-9.64,31.9-14.42a6.52,6.52,0,0,0,3.92-3.93c.15-.45.48-.84.66-1.28a4,4,0,0,1,4.16-2.63,45.87,45.87,0,0,1,5.22.62,20.53,20.53,0,0,1,3,.74,2,2,0,0,0,2.68-.91l.09-.23a14.7,14.7,0,0,1,9.69-7.7c9.32-2.66,17.62-7.5,26.22-11.73a254.64,254.64,0,0,1,24-10.23c5.54-2,11.06-4.13,16.58-6.2a17.5,17.5,0,0,1,7.45-1.44c2.15.15,4.31,0,6.47.05a4,4,0,0,0,3.19-1.32c2.23-2.3,4.57-4.48,6.77-6.8a5,5,0,0,1,4-1.62c4.16.09,8.32.08,12.48,0a8.59,8.59,0,0,0,3.2-.69q8.34-3.63,16.59-7.43a4.15,4.15,0,0,1,3.67-.1c.87.39,1.77.72,2.65,1.08,2.76,1.13,6.75.25,8.56-2.06a4.32,4.32,0,0,0,.51-2.49c0-5.51-.17-11,.07-16.55a34.72,34.72,0,0,1,3.23-14.14,21.51,21.51,0,0,1,7.76-8.62,4.8,4.8,0,0,1,2.9-.79c5.43.72,10.21,2.72,13.09,7.76a23.86,23.86,0,0,1,2.46,8.7,77.76,77.76,0,0,0,3.12,14.72,6,6,0,0,0,7.16,4c3.22-.59,6.47-1,9.66-1.69a35.66,35.66,0,0,0,5.41-1.87,1.87,1.87,0,0,0,1.29-2.31,2.09,2.09,0,0,0-.17-.41,9.06,9.06,0,0,1-.37-2.59c-.3-5.23.6-10.32,1.64-15.42a72.3,72.3,0,0,1,4-12.51c2.16-5.37,6.49-8.35,11.42-10.72,1.28-.62,2.24,0,3.17,1,4.39,4.43,8.82,8.82,13.24,13.22a4,4,0,0,1,1,1.06,4.46,4.46,0,0,1,.44,2c-.19,2-.71,4.09-.77,6.14a60.1,60.1,0,0,0,.27,9.1,43.44,43.44,0,0,0,1.9,7.63c.52,1.63,1,1.63,2.74,1.38,3.63-.53,7.28-.94,10.92-1.4.71-.08,1.43-.14,2.13-.24a29.37,29.37,0,0,1,3.08-.47c10.77-.5,21.51-1.62,32.31-.94,5.56.35,11.13.43,16.68.77,4.22.25,8.46.53,12.63,1.15,9.08,1.37,18.14,2.81,27.16,4.52,7.61,1.43,15.21,3,22.69,5a264.31,264.31,0,0,1,43.11,15.22,6,6,0,0,1,3.24,3.29c1,2.41,2.32,4.73,3.5,7.08ZM464.1,278.83V268.76c0-5.95,0-5.95-4.3-10.08l-.35-.34a3.69,3.69,0,0,0-4.6-.57c-2.67,1.33-5.33,2.6-8,3.79-2,.91-4.15,1.65-6.16,2.62a3,3,0,0,0-1.5,1.67c-.49,2.08-.74,4.22-1.06,6.34-.42,2.75-.75,5.52-1.25,8.26a75.75,75.75,0,0,0-1.66,15.89,20.53,20.53,0,0,0,1.52,7c1.53,3.9,1.8,3.93,5.84,2.75a68.6,68.6,0,0,0,18.54-8.23,5.94,5.94,0,0,0,3-5.57C464,287.78,464.1,283.31,464.1,278.83Z"/><path d="M458,.25a47,47,0,0,1,7.67,1.83A39.67,39.67,0,0,1,484.1,13.19a4.45,4.45,0,0,0,4.34,1.58c18.27-2.36,36.29,9.72,41.3,27.54A38.44,38.44,0,0,1,511.9,86.45a3,3,0,0,0-1.72,3c.07,8.24,0,16.48,0,24.71a19.45,19.45,0,0,1,0,2.16,3.52,3.52,0,0,1-3.4,3.4,19.48,19.48,0,0,1-2.16.06H402.39c-3.29-.07-4.5-1.24-4.5-4.51,0-8.4-.07-16.79.06-25.19a3.88,3.88,0,0,0-2.3-3.91,38.5,38.5,0,0,1,9.51-70.3c3.15-.87,5.43,1.17,5.15,3.44a8.65,8.65,0,0,1-.84,2.48,48.17,48.17,0,0,0-4.12,13.73c-.26,1.9-.41,3.82-.51,5.73a6.71,6.71,0,0,0,.28,2.36,3.39,3.39,0,0,0,6.39.11,10.41,10.41,0,0,0,.41-2.83c.07-1.84,2.81-22.23,18.37-33.18a48.84,48.84,0,0,1,14.8-6.64A46.9,46.9,0,0,1,449.8.23c1-.13,1.92-.2,2.7-.23h3S456.71.09,458,.25Zm38.16,74.11a8.87,8.87,0,0,0-.51-1.88A3.28,3.28,0,0,0,492,70.77,3.34,3.34,0,0,0,489.2,74a24.47,24.47,0,0,1-3.72,10c-1.56,2.6-3.34,5.06-5,7.58a19.8,19.8,0,0,0-1.44,2.2,3.43,3.43,0,0,0,5.45,4,5.35,5.35,0,0,0,.94-1.07c2.45-3.73,5.05-7.38,7.27-11.24a24.37,24.37,0,0,0,3.42-11.1Zm-84.36.41c.28,1.32.48,2.67.86,4,2,7,6,12.84,10.4,18.43a3.35,3.35,0,0,0,4.64,1l.22-.15c1.61-1.15,1.9-3.17.66-5.1-.6-.94-1.36-1.78-2-2.7-3.46-5.08-7-10.11-7.81-16.47a3.27,3.27,0,0,0-3.47-3.05,2.7,2.7,0,0,0-.41.05c-1.81.2-3,1.72-3.09,4Zm45.75,9.89V77a23.4,23.4,0,0,0-.12-3.35,3.3,3.3,0,0,0-3.27-2.92,3.25,3.25,0,0,0-3.43,2.72,12.68,12.68,0,0,0-.2,2.38V86.37c0,2.87-.07,5.76.06,8.63.11,2.32,1.64,3.74,3.61,3.66s3.18-1.5,3.34-3.69V84.66Z"/><path d="M453.86,126.86h52.06c3,.09,4.23,1.27,4.28,4.25s0,6.07,0,9.11a14.49,14.49,0,0,1-14.29,14.69h-.5c-9-.1-18.07,0-27.1,0H413.37c-4,0-7.59-.87-10.63-3.58a13.33,13.33,0,0,1-4.79-9.6c-.15-3.67-.13-7.35-.07-11,0-2.54,1.32-3.73,3.92-3.83h4.8Z"/><path d="M414.7,400.92v-1.68c.11-1.15.81-1.62,1.76-1.11a3.75,3.75,0,0,1,2.11,3c.1,1.2-.85,1.83-1.75,2.37-1.38.85-2,.49-2.13-1.16v-1.42Z"/><path d="M468.36,442.7a7.6,7.6,0,0,1-1.67,1.27c-.2.07-.63-.49-1-.77.34-.37.62-.88,1-1.07S467.52,442.38,468.36,442.7Z"/></g></g></g></g></svg>